<svg width="77" height="77" viewBox="0 0 77 77" fill="none" xmlns="http://www.w3.org/2000/svg">
<rect width="77" height="77" rx="10" fill="white"/>
<path d="M65.5372 26.4729H50.5271V11.4628C50.5271 10.1075 49.4196 9 48.0497 9H29.9502C28.5804 9 27.4729 10.1075 27.4729 11.4628V18.6035L32.6025 23.5874L35.5754 26.4729L36.9452 27.799L47.4668 38L36.9452 48.201L35.5754 49.5271L32.6025 52.4126L27.4729 57.3965V64.5372C27.4729 65.8925 28.5804 67 29.9502 67H48.0497C49.4196 67 50.5271 65.8925 50.5271 64.5372V49.5271H65.5372C66.8925 49.5271 68 48.4196 68 47.0497V28.9502C68 27.5804 66.8925 26.4729 65.5372 26.4729Z" fill="#003075"/>
<path d="M35.8814 29.8392L32.413 26.4729L27.4728 21.6784V26.4729H12.4628C11.1075 26.4729 10 27.5804 10 28.9503V47.0498C10 48.4196 11.1075 49.5272 12.4628 49.5272H27.4728V54.3216L32.413 49.5272L35.8814 46.1608L44.2899 38L35.8814 29.8392Z" fill="#DA0010"/>
</svg>
