<svg width="58.824829" height="53.856934" viewBox="0 0 58.8248 53.8569" fill="none" xmlns="http://www.w3.org/2000/svg" xmlns:xlink="http://www.w3.org/1999/xlink">
	<desc>
			Created with Pixso.
	</desc>
	<defs/>
	<g style="mix-blend-mode:normal">
		<line id="Линия 6" x1="9.540405" y1="13.266602" x2="48.041748" y2="13.266602" stroke="#003075" stroke-opacity="1.000000" stroke-width="1.693807"/>
	</g>
	<g style="mix-blend-mode:normal">
		<line id="Линия 7" x1="9.540405" y1="19.476440" x2="34.380005" y2="19.476440" stroke="#003075" stroke-opacity="1.000000" stroke-width="1.693807"/>
	</g>
	<g style="mix-blend-mode:normal">
		<line id="Линия 8" x1="9.540283" y1="25.686401" x2="29.411987" y2="25.686401" stroke="#003075" stroke-opacity="1.000000" stroke-width="1.693807"/>
	</g>
	<g style="mix-blend-mode:normal">
		<path id="Контур 28" d="M54.25 40.58L55.49 40.58C56.86 40.58 57.97 39.47 57.97 38.1L57.97 3.33C57.97 1.95 56.86 0.84 55.49 0.84L3.33 0.84C1.95 0.84 0.84 1.95 0.84 3.33L0.84 38.1C0.84 39.47 1.95 40.58 3.33 40.58L8.29 40.58L8.29 49.28L16.99 40.58L18.23 40.58" stroke="#003075" stroke-opacity="1.000000" stroke-width="1.693807"/>
	</g>
	<g style="mix-blend-mode:normal">
		<path id="Контур 29" d="M27.48 50.52C28.51 50.52 29.28 51.08 29.97 51.76C30.65 52.45 32.33 53.01 33.69 53.01L43.63 53.01C44.99 53.01 46.4 51.93 46.75 50.61L50.44 36.78C50.79 35.46 49.96 34.38 48.6 34.38L43.63 34.38C42.26 34.38 41.14 33.26 41.14 31.89L41.14 25.68C41.14 24.32 40.31 23.2 39.28 23.2C38.26 23.2 36.97 24.22 36.41 25.47L33.46 32.11C32.9 33.35 31.45 36.25 30.23 36.86L27.48 38.1" stroke="#003075" stroke-opacity="1.000000" stroke-width="1.693807"/>
	</g>
	<g style="mix-blend-mode:normal">
		<rect id="Прямоугольник 7" x="21.960205" y="35.622192" width="6.209894" height="17.387703" stroke="#003075" stroke-opacity="1.000000" stroke-width="1.693807"/>
	</g>
</svg>
