<svg width="320.557983" height="50.233799" viewBox="0 0 320.558 50.2338" fill="none" xmlns="http://www.w3.org/2000/svg" xmlns:xlink="http://www.w3.org/1999/xlink">
	<desc>
			Created with Pixso.
	</desc>
	<defs/>
	<g style="mix-blend-mode:normal">
		<path id="Контур 1" d="M48.53 2.9L48.53 20.47L52.56 20.47L52.56 5.81L64.6 5.81L64.6 20.47L68.62 20.47L68.62 2.9L48.53 2.9Z" fill="#003075" fill-opacity="1.000000" fill-rule="nonzero"/>
	</g>
	<g style="mix-blend-mode:normal">
		<path id="Контур 2" d="M206.38 5.81L206.38 2.9L192.42 2.9L188.81 2.9L188.39 2.9L188.39 20.47L188.81 20.47L192.42 20.47L206.38 20.47L206.38 17.56L192.42 17.56L192.42 13.14L200.48 13.14L200.48 10.23L192.42 10.23L192.42 5.81L206.38 5.81Z" fill="#DA0010" fill-opacity="1.000000" fill-rule="nonzero"/>
	</g>
	<g style="mix-blend-mode:normal">
		<path id="Контур 3" d="M119.13 5.26C119.05 3.94 117.97 2.9 116.64 2.9L114.26 2.9L102.34 2.9L100 2.9C98.67 2.9 97.55 3.94 97.48 5.26L97.46 5.4L97.46 17.98C97.49 19.34 98.6 20.48 99.96 20.48L102.34 20.48L114.26 20.48L116.6 20.48C117.97 20.48 119.11 19.38 119.14 18.02L119.14 5.4L119.13 5.26ZM115.11 7.36L115.11 16.01L115.11 17.56L114.26 17.56L102.42 17.56L101.49 17.56L101.49 16.01L101.49 7.36L101.49 5.81L102.34 5.81L114.18 5.81L115.11 5.81L115.11 7.36Z" fill="#003075" fill-opacity="1.000000" fill-rule="nonzero"/>
	</g>
	<g style="mix-blend-mode:normal">
		<path id="Контур 4" d="M92.73 5.26C92.65 3.94 91.57 2.9 90.24 2.9L73.48 2.9L73.48 20.47L77.51 20.47L77.51 13.54L90.2 13.54C91.57 13.54 92.71 12.44 92.74 11.08L92.74 5.4L92.73 5.26ZM88.71 10.17C88.71 10.42 88.51 10.62 88.26 10.63L87.78 10.63L77.51 10.63L77.51 5.81L87.78 5.81L88.26 5.81C88.51 5.81 88.71 6.01 88.71 6.26L88.71 10.17Z" fill="#003075" fill-opacity="1.000000" fill-rule="nonzero"/>
	</g>
	<g style="mix-blend-mode:normal">
		<path id="Контур 5" d="M236.17 17.56L236.17 2.9L216.93 2.9C215.56 2.9 214.42 3.99 214.4 5.35L214.39 17.56L210.48 17.56L210.48 23.29L214.51 23.29L214.51 20.47L236.13 20.47L236.13 23.29L240.16 23.29L240.16 17.56L236.17 17.56ZM218.42 17.56L218.42 16.01L218.42 7.36L218.42 5.81L219.35 5.81L232.14 5.81L232.14 17.56L218.42 17.56Z" fill="#DA0010" fill-opacity="1.000000" fill-rule="nonzero"/>
	</g>
	<g style="mix-blend-mode:normal">
		<path id="Контур 6" d="M179.62 2.9L171.58 13.41L163.54 2.9L159.51 2.9L159.51 20.47L163.54 20.47L163.54 7.7L169.74 15.8L171.57 18.19L173.41 15.8L179.61 7.7L179.61 20.47L183.64 20.47L183.64 2.9L179.62 2.9Z" fill="#DA0010" fill-opacity="1.000000" fill-rule="nonzero"/>
	</g>
	<g style="mix-blend-mode:normal">
		<path id="Контур 7" d="M261.49 2.9L247.91 16.14L247.91 2.9L243.88 2.9L243.88 20.47L247.91 20.47L261.49 7.26L261.49 20.47L265.52 20.47L265.52 2.9L261.49 2.9Z" fill="#DA0010" fill-opacity="1.000000" fill-rule="nonzero"/>
	</g>
	<g style="mix-blend-mode:normal">
		<path id="Контур 8" d="M285.45 20.47L291.37 20.47L278.83 11.44L290.69 2.9L284.77 2.9L274.55 10.26L274.55 2.9L270.52 2.9L270.52 20.47L274.55 20.47L274.55 12.7L274.66 12.7L285.45 20.47Z" fill="#DA0010" fill-opacity="1.000000" fill-rule="nonzero"/>
	</g>
	<g style="mix-blend-mode:normal">
		<path id="Контур 9" d="M314.87 20.47L318.9 20.47L309.07 2.9L305.04 2.9L295.21 20.47L299.24 20.47L301.46 16.49L312.64 16.49L314.87 20.47ZM303.09 13.58L307.05 6.5L311.01 13.58L303.09 13.58Z" fill="#DA0010" fill-opacity="1.000000" fill-rule="nonzero"/>
	</g>
	<g style="mix-blend-mode:normal">
		<path id="Контур 10" d="M155.3 5.26C155.23 3.94 154.15 2.9 152.81 2.9L142.08 2.9L141.62 2.9L138.52 2.9L138.06 2.9L127.36 2.9C126.03 2.9 124.91 3.94 124.84 5.26L124.83 5.4L124.83 14.6C124.85 15.96 125.96 17.1 127.33 17.1L138.06 17.1L138.06 20.47L142.08 20.47L142.08 17.1L152.78 17.1C154.14 17.1 155.29 16 155.31 14.64L155.31 5.4L155.3 5.26ZM129.78 14.19L129.3 14.19C129.06 14.18 128.86 13.98 128.86 13.73L128.86 6.26C128.86 6.01 129.06 5.81 129.31 5.81L129.78 5.81L138.06 5.81L138.06 14.19L129.78 14.19ZM151.28 13.73C151.28 13.98 151.08 14.18 150.83 14.19L150.36 14.19L142.08 14.19L142.08 5.81L150.36 5.81L150.83 5.81C151.08 5.81 151.28 6.01 151.28 6.26L151.28 13.73Z" fill="#003075" fill-opacity="1.000000" fill-rule="nonzero"/>
	</g>
	<g style="mix-blend-mode:normal">
		<path id="ПРОДАЖА И АРЕНДА МЕДИЦИНСКОЙ ТЕХНИКИ" d="M261.21 37.55Q261.49 37.15 261.55 36.6L260.46 36.6Q260.4 37.04 260.15 37.3Q260.13 37.33 260.1 37.35Q260.01 37.43 259.92 37.48Q259.68 37.62 259.35 37.62Q258.85 37.62 258.57 37.37Q258.29 37.12 258.25 36.6L257.17 36.6Q257.2 37.16 257.48 37.56Q257.61 37.77 257.81 37.93Q257.87 37.98 257.93 38.02Q258.49 38.42 259.34 38.42Q260.1 38.42 260.66 38.07Q260.76 38.01 260.85 37.93Q261.06 37.76 261.21 37.55ZM65.12 46.83Q65.99 47.36 67.19 47.36Q68.43 47.36 69.32 46.81Q69.71 46.57 70.04 46.22Q70.14 46.1 70.24 45.98Q71.1 44.87 71.1 43.09Q71.1 41.62 70.42 40.6Q70.26 40.36 70.06 40.15Q69.71 39.76 69.28 39.51Q68.44 39.02 67.32 39.02Q65.99 39.02 65.06 39.63Q64.71 39.86 64.42 40.18Q64.28 40.33 64.16 40.5Q63.35 41.59 63.35 43.29Q63.35 44.72 64 45.72Q64.18 45.99 64.4 46.23Q64.73 46.59 65.12 46.83ZM236.58 47.36Q237.94 47.36 238.85 46.89L238.85 45.65Q238.77 45.7 238.68 45.75Q237.9 46.19 236.87 46.19Q236.01 46.19 235.38 45.81Q235.1 45.64 234.87 45.4Q234.74 45.27 234.63 45.12Q234.11 44.38 234.11 43.28Q234.11 42.15 234.64 41.38Q234.76 41.2 234.92 41.04Q235.18 40.77 235.48 40.59Q236.15 40.2 237.05 40.2Q237.67 40.2 238.23 40.39Q238.55 40.5 238.85 40.68L238.85 39.35Q238.08 39.02 236.91 39.02Q235.76 39.02 234.87 39.49Q234.34 39.77 233.9 40.21Q233.58 40.54 233.34 40.91Q232.71 41.93 232.71 43.34Q232.71 44.75 233.35 45.73Q233.53 46.01 233.76 46.25Q234.07 46.57 234.43 46.8Q235.33 47.36 236.58 47.36ZM248.34 46.83Q249.21 47.36 250.42 47.36Q251.65 47.36 252.54 46.81Q252.93 46.57 253.26 46.22Q253.37 46.1 253.46 45.98Q254.32 44.87 254.32 43.09Q254.32 41.62 253.64 40.6Q253.48 40.36 253.28 40.15Q252.93 39.76 252.5 39.51Q251.67 39.02 250.55 39.02Q249.21 39.02 248.28 39.63Q247.93 39.86 247.64 40.18Q247.5 40.33 247.38 40.5Q246.57 41.59 246.57 43.29Q246.57 44.72 247.22 45.72Q247.4 45.99 247.62 46.23Q247.95 46.59 248.34 46.83ZM53.72 47.23L55.06 47.23L55.06 39.16L48.55 39.16L48.55 47.23L49.89 47.23L49.89 40.35L53.72 40.35L53.72 47.23ZM58.44 47.23L58.44 44.3L59.52 44.3Q60.71 44.3 61.47 43.73Q61.58 43.65 61.68 43.55Q61.99 43.26 62.18 42.91Q62.48 42.35 62.48 41.63Q62.48 40.78 62.08 40.21Q61.93 39.98 61.71 39.8Q60.95 39.16 59.56 39.16L57.11 39.16L57.11 47.23L58.44 47.23ZM78.42 49.41L79.62 49.41L79.62 46.09L78.51 46.09L78.51 39.16L74.31 39.16Q74.24 40.87 73.71 42.77Q73.19 44.67 72.43 46.09L71.74 46.09L71.74 49.41L72.94 49.41L72.94 47.23L78.42 47.23L78.42 49.41ZM86.25 47.23L87.72 47.23L84.72 39.16L83.21 39.16L80.19 47.23L81.65 47.23L82.35 45.17L85.52 45.17L86.25 47.23ZM97.23 47.23L98.95 47.23L95.53 43.03L98.7 39.16L97.09 39.16L94.42 42.6Q94.28 42.78 94.21 42.92L94.18 42.92L94.18 39.16L92.89 39.16L92.89 42.92L92.87 42.92Q92.78 42.76 92.65 42.6L89.98 39.16L88.36 39.16L91.54 43.03L88.12 47.23L89.84 47.23L92.68 43.57Q92.79 43.43 92.87 43.29L92.89 43.29L92.89 47.23L94.18 47.23L94.18 43.29L94.21 43.29Q94.27 43.42 94.39 43.57L97.23 47.23ZM105.41 47.23L106.87 47.23L103.87 39.16L102.37 39.16L99.34 47.23L100.81 47.23L101.5 45.17L104.68 45.17L105.41 47.23ZM116.85 47.23L118.14 47.23L118.14 39.16L116.6 39.16L112.86 44.95Q112.68 45.22 112.56 45.44L112.54 45.44Q112.59 45.17 112.59 44.29L112.59 39.16L111.29 39.16L111.29 47.23L112.76 47.23L116.63 41.29Q116.78 41.08 116.87 40.83L116.91 40.83Q116.85 41.13 116.85 41.85L116.85 47.23ZM128.61 47.23L130.08 47.23L127.08 39.16L125.57 39.16L122.55 47.23L124.01 47.23L124.71 45.17L127.89 45.17L128.61 47.23ZM132.6 47.23L132.6 44.3L133.67 44.3Q134.86 44.3 135.62 43.73Q135.73 43.65 135.83 43.55Q136.14 43.26 136.33 42.91Q136.63 42.35 136.63 41.63Q136.63 40.78 136.24 40.21Q136.08 39.98 135.87 39.8Q135.1 39.16 133.71 39.16L131.26 39.16L131.26 47.23L132.6 47.23ZM138.07 47.23L142.6 47.23L142.6 46.1L139.41 46.1L139.41 43.71L142.18 43.71L142.18 42.58L139.41 42.58L139.41 40.29L142.42 40.29L142.42 39.16L138.07 39.16L138.07 47.23ZM149.25 47.23L150.59 47.23L150.59 39.16L149.25 39.16L149.25 42.55L145.45 42.55L145.45 39.16L144.11 39.16L144.11 47.23L145.45 47.23L145.45 43.73L149.25 43.73L149.25 47.23ZM158.48 49.41L159.67 49.41L159.67 46.09L158.56 46.09L158.56 39.16L154.37 39.16Q154.3 40.87 153.77 42.77Q153.24 44.67 152.48 46.09L151.8 46.09L151.8 49.41L152.99 49.41L152.99 47.23L158.48 47.23L158.48 49.41ZM166.3 47.23L167.77 47.23L164.77 39.16L163.26 39.16L160.24 47.23L161.7 47.23L162.4 45.17L165.58 45.17L166.3 47.23ZM179.53 47.23L180.86 47.23L180.86 39.16L179.04 39.16L176.88 44.51Q176.75 44.82 176.54 45.46L176.51 45.46Q176.44 45.15 176.2 44.53L174.08 39.16L172.19 39.16L172.19 47.23L173.43 47.23L173.43 42.02Q173.43 40.92 173.38 40.43L173.41 40.43Q173.52 40.97 173.62 41.24L176.03 47.23L176.96 47.23L179.37 41.19Q179.46 40.96 179.59 40.43L179.61 40.43Q179.53 41.36 179.53 42L179.53 47.23ZM182.92 47.23L187.45 47.23L187.45 46.1L184.26 46.1L184.26 43.71L187.03 43.71L187.03 42.58L184.26 42.58L184.26 40.29L187.27 40.29L187.27 39.16L182.92 39.16L182.92 47.23ZM195.13 49.41L196.33 49.41L196.33 46.09L195.21 46.09L195.21 39.16L191.02 39.16Q190.95 40.87 190.42 42.77Q189.89 44.67 189.13 46.09L188.45 46.09L188.45 49.41L189.65 49.41L189.65 47.23L195.13 47.23L195.13 49.41ZM203.35 47.23L204.64 47.23L204.64 39.16L203.1 39.16L199.36 44.95Q199.18 45.22 199.07 45.44L199.04 45.44Q199.09 45.17 199.09 44.29L199.09 39.16L197.79 39.16L197.79 47.23L199.26 47.23L203.14 41.29Q203.28 41.08 203.37 40.83L203.41 40.83Q203.35 41.13 203.35 41.85L203.35 47.23ZM213.11 49.41L214.31 49.41L214.31 46.06L213.2 46.06L213.2 39.16L211.85 39.16L211.85 46.06L208.05 46.06L208.05 39.16L206.71 39.16L206.71 47.23L213.11 47.23L213.11 49.41ZM221.31 47.23L222.6 47.23L222.6 39.16L221.05 39.16L217.32 44.95Q217.14 45.22 217.02 45.44L217 45.44Q217.05 45.17 217.05 44.29L217.05 39.16L215.75 39.16L215.75 47.23L217.22 47.23L221.09 41.29Q221.23 41.08 221.33 40.83L221.36 40.83Q221.31 41.13 221.31 41.85L221.31 47.23ZM229.81 47.23L231.16 47.23L231.16 39.16L229.81 39.16L229.81 42.55L226.01 42.55L226.01 39.16L224.67 39.16L224.67 47.23L226.01 47.23L226.01 43.73L229.81 43.73L229.81 47.23ZM244.81 47.23L246.56 47.23L243.15 43.03L246.32 39.16L244.71 39.16L242 42.67Q241.88 42.83 241.81 42.95L241.79 42.95L241.79 39.16L240.45 39.16L240.45 47.23L241.79 47.23L241.79 43.25L241.81 43.25Q241.85 43.33 242 43.54L244.81 47.23ZM261.43 47.23L262.72 47.23L262.72 39.16L261.18 39.16L257.44 44.95Q257.26 45.22 257.14 45.44L257.12 45.44Q257.17 45.17 257.17 44.29L257.17 39.16L255.87 39.16L255.87 47.23L257.34 47.23L261.22 41.29Q261.36 41.08 261.45 40.83L261.49 40.83Q261.43 41.13 261.43 41.85L261.43 47.23ZM270.89 40.29L273.21 40.29L273.21 39.16L267.24 39.16L267.24 40.29L269.55 40.29L269.55 47.23L270.89 47.23L270.89 40.29ZM274.46 47.23L278.99 47.23L278.99 46.1L275.8 46.1L275.8 43.71L278.58 43.71L278.58 42.58L275.8 42.58L275.8 40.29L278.81 40.29L278.81 39.16L274.46 39.16L274.46 47.23ZM284.98 47.23L286.59 47.23L284.04 43.16L286.53 39.16L285.03 39.16L283.51 41.86Q283.39 42.07 283.23 42.42L283.21 42.42Q283.1 42.15 282.96 41.88L281.5 39.16L279.86 39.16L282.29 43.17L279.65 47.23L281.26 47.23L282.97 44.27Q283.09 44.01 283.14 43.88L283.16 43.88Q283.25 44.13 283.32 44.27L284.98 47.23ZM292.9 47.23L294.24 47.23L294.24 39.16L292.9 39.16L292.9 42.55L289.1 42.55L289.1 39.16L287.76 39.16L287.76 47.23L289.1 47.23L289.1 43.73L292.9 43.73L292.9 47.23ZM301.86 47.23L303.15 47.23L303.15 39.16L301.61 39.16L297.87 44.95Q297.69 45.22 297.58 45.44L297.56 45.44Q297.6 45.17 297.6 44.29L297.6 39.16L296.31 39.16L296.31 47.23L297.78 47.23L301.65 41.29Q301.79 41.08 301.88 40.83L301.92 40.83Q301.86 41.13 301.86 41.85L301.86 47.23ZM309.59 47.23L311.33 47.23L307.92 43.03L311.09 39.16L309.49 39.16L306.78 42.67Q306.66 42.83 306.59 42.95L306.57 42.95L306.57 39.16L305.23 39.16L305.23 47.23L306.57 47.23L306.57 43.25L306.59 43.25Q306.62 43.33 306.78 43.54L309.59 47.23ZM317.89 47.23L319.18 47.23L319.18 39.16L317.64 39.16L313.9 44.95Q313.72 45.22 313.61 45.44L313.59 45.44Q313.63 45.17 313.63 44.29L313.63 39.16L312.34 39.16L312.34 47.23L313.81 47.23L317.68 41.29Q317.82 41.08 317.92 40.83L317.95 40.83Q317.89 41.13 317.89 41.85L317.89 47.23ZM66.19 40.43Q66.66 40.2 67.26 40.2Q68 40.2 68.54 40.53Q68.82 40.71 69.05 40.99Q69.7 41.77 69.7 43.22Q69.7 44.63 69.03 45.41Q68.81 45.67 68.53 45.85Q67.97 46.19 67.2 46.19Q66.61 46.19 66.15 45.96Q65.75 45.75 65.43 45.37Q65.41 45.34 65.38 45.31Q64.76 44.5 64.76 43.2Q64.76 41.94 65.36 41.14Q65.41 41.08 65.45 41.02Q65.77 40.64 66.19 40.43ZM249.41 40.43Q249.88 40.2 250.48 40.2Q251.22 40.2 251.76 40.53Q252.04 40.71 252.27 40.99Q252.92 41.77 252.92 43.22Q252.92 44.63 252.25 45.41Q252.03 45.67 251.75 45.85Q251.19 46.19 250.42 46.19Q249.84 46.19 249.37 45.96Q248.97 45.75 248.65 45.37Q248.63 45.34 248.61 45.31Q247.98 44.5 247.98 43.2Q247.98 41.94 248.58 41.14Q248.63 41.08 248.67 41.02Q249 40.64 249.41 40.43ZM58.44 43.21L58.44 40.26L59.42 40.26Q60.37 40.26 60.77 40.73Q61.07 41.08 61.07 41.68Q61.07 42.24 60.81 42.6Q60.73 42.72 60.62 42.81Q60.17 43.21 59.31 43.21L58.44 43.21ZM132.6 43.21L132.6 40.26L133.57 40.26Q134.52 40.26 134.92 40.73Q135.22 41.08 135.22 41.68Q135.22 42.24 134.96 42.6Q134.88 42.72 134.77 42.81Q134.32 43.21 133.46 43.21L132.6 43.21ZM77.17 40.31L77.17 46.09L73.83 46.09Q74.41 44.96 74.87 43.27Q75.34 41.57 75.42 40.31L77.17 40.31ZM157.22 40.31L157.22 46.09L153.89 46.09Q154.46 44.96 154.93 43.27Q155.39 41.57 155.47 40.31L157.22 40.31ZM193.87 40.31L193.87 46.09L190.54 46.09Q191.11 44.96 191.58 43.27Q192.05 41.57 192.13 40.31L193.87 40.31ZM84.05 40.86L85.17 44.08L82.7 44.08L83.81 40.86Q83.87 40.68 83.92 40.35L83.94 40.35Q84 40.7 84.05 40.86ZM103.2 40.86L104.32 44.08L101.85 44.08L102.96 40.86Q103.02 40.68 103.07 40.35L103.1 40.35Q103.15 40.7 103.2 40.86ZM126.41 40.86L127.53 44.08L125.06 44.08L126.17 40.86Q126.23 40.68 126.28 40.35L126.3 40.35Q126.36 40.7 126.41 40.86ZM164.1 40.86L165.22 44.08L162.75 44.08L163.86 40.86Q163.92 40.68 163.97 40.35L163.99 40.35Q164.05 40.7 164.1 40.86Z" fill="#003075" fill-opacity="1.000000" fill-rule="evenodd"/>
	</g>
	<g style="mix-blend-mode:normal">
		<path id="Контур 11" d="M38.11 11.99L27.81 11.99L27.81 1.69C27.81 0.76 27.05 3.81e-6 26.11 3.81e-6L13.69 3.81e-6C12.75 3.81e-6 11.99 0.76 11.99 1.69L11.99 6.59L15.51 10.01L17.55 11.99L18.49 12.9L25.71 19.9L18.49 26.9L17.55 27.81L15.51 29.79L11.99 33.21L11.99 38.11C11.99 39.04 12.75 39.8 13.69 39.8L26.11 39.8C27.05 39.8 27.81 39.04 27.81 38.11L27.81 27.81L38.11 27.81C39.04 27.81 39.8 27.05 39.8 26.11L39.8 13.69C39.8 12.75 39.04 11.99 38.11 11.99Z" fill="#003075" fill-opacity="1.000000" fill-rule="nonzero"/>
	</g>
	<g style="mix-blend-mode:normal">
		<path id="Контур 12" d="M17.76 14.3L15.38 11.99L11.99 8.7L11.99 11.99L1.69 11.99C0.76 11.99 1.52e-5 12.75 1.52e-5 13.69L1.52e-5 26.11C1.52e-5 27.05 0.76 27.81 1.69 27.81L11.99 27.81L11.99 31.1L15.38 27.81L17.76 25.5L23.53 19.9L17.76 14.3Z" fill="#DA0010" fill-opacity="1.000000" fill-rule="nonzero"/>
	</g>
</svg>
