<svg width="59.219940" height="57.978027" viewBox="0 0 59.2199 57.978" fill="none" xmlns="http://www.w3.org/2000/svg" xmlns:xlink="http://www.w3.org/1999/xlink">
	<desc>
			Created with Pixso.
	</desc>
	<defs/>
	<g style="mix-blend-mode:normal">
		<line id="Линия 23" x1="28.170410" y1="24.444580" x2="45.558105" y2="24.444580" stroke="#003075" stroke-opacity="1.000000" stroke-width="1.693807"/>
	</g>
	<g style="mix-blend-mode:normal">
		<line id="Линия 24" x1="28.170410" y1="34.380371" x2="36.864258" y2="34.380371" stroke="#003075" stroke-opacity="1.000000" stroke-width="1.693807"/>
	</g>
	<g style="mix-blend-mode:normal">
		<line id="Линия 25" x1="44.316162" y1="34.380371" x2="59.219910" y2="34.380371" stroke="#003075" stroke-opacity="1.000000" stroke-width="1.693807"/>
	</g>
	<g style="mix-blend-mode:normal">
		<line id="Линия 26" x1="53.010040" y1="24.444580" x2="59.219940" y2="24.444580" stroke="#003075" stroke-opacity="1.000000" stroke-width="1.693807"/>
	</g>
	<g style="mix-blend-mode:normal">
		<rect id="Прямоугольник 10" x="29.412384" y="10.782837" width="4.967915" height="7.451873" stroke="#003075" stroke-opacity="1.000000" stroke-width="1.693807"/>
	</g>
	<g style="mix-blend-mode:normal">
		<rect id="Прямоугольник 11" x="45.558136" y="20.718628" width="4.967915" height="7.451873" stroke="#003075" stroke-opacity="1.000000" stroke-width="1.693807"/>
	</g>
	<g style="mix-blend-mode:normal">
		<line id="Линия 27" x1="28.170441" y1="44.316162" x2="49.284088" y2="44.316162" stroke="#003075" stroke-opacity="1.000000" stroke-width="1.693807"/>
	</g>
	<g style="mix-blend-mode:normal">
		<line id="Линия 28" x1="56.735931" y1="44.316162" x2="59.219879" y2="44.316162" stroke="#003075" stroke-opacity="1.000000" stroke-width="1.693807"/>
	</g>
	<g style="mix-blend-mode:normal">
		<rect id="Прямоугольник 12" x="49.284058" y="40.590210" width="4.967915" height="7.451873" stroke="#003075" stroke-opacity="1.000000" stroke-width="1.693807"/>
	</g>
	<g style="mix-blend-mode:normal">
		<rect id="Прямоугольник 13" x="36.864258" y="30.654419" width="4.967915" height="7.451873" stroke="#003075" stroke-opacity="1.000000" stroke-width="1.693807"/>
	</g>
	<g style="mix-blend-mode:normal">
		<circle id="Эллипс 3" cx="12.024750" cy="5.814819" r="4.967915" stroke="#003075" stroke-opacity="1.000000" stroke-width="1.693807"/>
	</g>
	<g style="mix-blend-mode:normal">
		<path id="Контур 34" d="M20.71 39.34L23.2 39.34L23.2 19.47C23.19 18.12 22.15 16.45 20.81 15.93C15.55 13.96 8.49 13.96 3.23 15.93C1.89 16.45 0.84 18.12 0.84 19.47L0.84 39.34L3.33 39.34" stroke="#003075" stroke-opacity="1.000000" stroke-width="1.693807"/>
	</g>
	<g style="mix-blend-mode:normal">
		<line id="Линия 29" x1="5.814819" y1="20.718628" x2="5.814819" y2="57.978027" stroke="#003075" stroke-opacity="1.000000" stroke-width="1.693807"/>
	</g>
	<g style="mix-blend-mode:normal">
		<line id="Линия 30" x1="18.234619" y1="20.718628" x2="18.234619" y2="57.978027" stroke="#003075" stroke-opacity="1.000000" stroke-width="1.693807"/>
	</g>
	<g style="mix-blend-mode:normal">
		<line id="Линия 31" x1="12.024719" y1="57.977905" x2="12.024719" y2="39.348267" stroke="#003075" stroke-opacity="1.000000" stroke-width="1.693807"/>
	</g>
	<g style="mix-blend-mode:normal">
		<line id="Линия 32" x1="36.864258" y1="14.508667" x2="59.219879" y2="14.508667" stroke="#003075" stroke-opacity="1.000000" stroke-width="1.693807"/>
	</g>
</svg>
