<svg width="57.582886" height="55.054810" viewBox="0 0 57.5829 55.0548" fill="none" xmlns="http://www.w3.org/2000/svg" xmlns:xlink="http://www.w3.org/1999/xlink">
	<desc>
			Created with Pixso.
	</desc>
	<defs/>
	<g style="mix-blend-mode:normal">
		<path id="Контур 25" d="M56.73 9.54L56.73 36.86L40.59 36.86L33.13 44.31L33.13 36.86L29.41 36.86L29.41 9.54L34.38 9.54L50.52 9.54L56.73 9.54Z" stroke="#003075" stroke-opacity="1.000000" stroke-width="1.693807"/>
	</g>
	<g style="mix-blend-mode:normal">
		<path id="Контур 26" d="M29.41 45.55L25.68 45.55L25.68 53.01L18.23 45.55L0.84 45.55L0.84 21.96L7.05 21.96" stroke="#003075" stroke-opacity="1.000000" stroke-width="1.693807"/>
	</g>
	<g style="mix-blend-mode:normal">
		<circle id="Эллипс 1" cx="15.129761" cy="35.001587" r="4.346926" stroke="#003075" stroke-opacity="1.000000" stroke-width="1.693807"/>
	</g>
	<g style="mix-blend-mode:normal">
		<path id="Контур 27" d="M10.78 26.92L10.78 20.71L11.52 19.72C13.05 17.68 14.41 16.24 15.41 15.18C16.07 14.48 16.89 13.6 16.99 13.31L16.99 9.54C16.99 8.85 16.43 8.29 15.75 8.29L12.02 8.29C11.34 8.29 10.78 8.85 10.78 9.54L10.78 13.26L3.33 13.26L3.33 9.54C3.33 4.74 7.23 0.84 12.02 0.84L15.75 0.84C20.54 0.84 24.44 4.74 24.44 9.54L24.44 13.26C24.44 16.45 22.69 18.31 20.84 20.28C20.06 21.11 19.2 22.02 18.23 23.23L18.23 26.92L10.78 26.92Z" stroke="#003075" stroke-opacity="1.000000" stroke-width="1.693807"/>
	</g>
	<g style="mix-blend-mode:normal">
		<line id="Линия 2" x1="35.622437" y1="18.234863" x2="50.526123" y2="18.234863" stroke="#003075" stroke-opacity="1.000000" stroke-width="1.693807"/>
	</g>
	<g style="mix-blend-mode:normal">
		<line id="Линия 3" x1="35.622437" y1="23.202759" x2="50.526123" y2="23.202759" stroke="#003075" stroke-opacity="1.000000" stroke-width="1.693807"/>
	</g>
	<g style="mix-blend-mode:normal">
		<line id="Линия 4" x1="35.622437" y1="28.170776" x2="50.526123" y2="28.170776" stroke="#003075" stroke-opacity="1.000000" stroke-width="1.693807"/>
	</g>
</svg>
