<svg width="58.824890" height="59.219849" viewBox="0 0 58.8249 59.2198" fill="none" xmlns="http://www.w3.org/2000/svg" xmlns:xlink="http://www.w3.org/1999/xlink">
	<desc>
			Created with Pixso.
	</desc>
	<defs/>
	<g style="mix-blend-mode:normal">
		<circle id="Эллипс 2" cx="13.266907" cy="39.347778" r="4.967915" stroke="#003075" stroke-opacity="1.000000" stroke-width="1.693807"/>
	</g>
	<g style="mix-blend-mode:normal">
		<path id="Контур 30" d="M24.44 59.21C24.44 52.59 24.44 59.63 24.44 53C24.44 51.65 23.39 49.98 22.05 49.47C16.79 47.49 9.74 47.49 4.47 49.47C3.13 49.98 2.08 51.65 2.08 53C2.08 59.63 2.08 52.59 2.08 59.21" stroke="#003075" stroke-opacity="1.000000" stroke-width="1.693807"/>
	</g>
	<g style="mix-blend-mode:normal">
		<line id="Линия 10" x1="7.057007" y1="54.251465" x2="7.057007" y2="59.219360" stroke="#003075" stroke-opacity="1.000000" stroke-width="1.693807"/>
	</g>
	<g style="mix-blend-mode:normal">
		<line id="Линия 11" x1="19.476807" y1="54.251465" x2="19.476807" y2="59.219360" stroke="#003075" stroke-opacity="1.000000" stroke-width="1.693807"/>
	</g>
	<g style="mix-blend-mode:normal">
		<line id="Линия 12" x1="29.412720" y1="5.814331" x2="29.412720" y2="8.298340" stroke="#003075" stroke-opacity="1.000000" stroke-width="1.693807"/>
	</g>
	<g style="mix-blend-mode:normal">
		<line id="Линия 13" x1="17.613831" y1="8.975708" x2="18.855835" y2="11.126709" stroke="#003075" stroke-opacity="1.000000" stroke-width="1.693807"/>
	</g>
	<g style="mix-blend-mode:normal">
		<line id="Линия 14" x1="8.977051" y1="17.612549" x2="11.128052" y2="18.854492" stroke="#003075" stroke-opacity="1.000000" stroke-width="1.693807"/>
	</g>
	<g style="mix-blend-mode:normal">
		<line id="Линия 15" x1="5.815674" y1="29.410767" x2="8.299011" y2="29.411377" stroke="#003075" stroke-opacity="1.000000" stroke-width="1.693807"/>
	</g>
	<g style="mix-blend-mode:normal">
		<path id="Контур 31" d="" stroke="#003075" stroke-opacity="1.000000" stroke-width="1.693807"/>
	</g>
	<g style="mix-blend-mode:normal">
		<line id="Линия 16" x1="29.412720" y1="53.007080" x2="29.412720" y2="50.525635" stroke="#003075" stroke-opacity="1.000000" stroke-width="1.693807"/>
	</g>
	<g style="mix-blend-mode:normal">
		<line id="Линия 17" x1="41.210266" y1="49.845947" x2="39.969543" y2="47.696167" stroke="#003075" stroke-opacity="1.000000" stroke-width="1.693807"/>
	</g>
	<g style="mix-blend-mode:normal">
		<line id="Линия 18" x1="49.847046" y1="41.208862" x2="47.697937" y2="39.967529" stroke="#003075" stroke-opacity="1.000000" stroke-width="1.693807"/>
	</g>
	<g style="mix-blend-mode:normal">
		<line id="Линия 19" x1="53.008484" y1="29.410645" x2="50.526367" y2="29.410645" stroke="#003075" stroke-opacity="1.000000" stroke-width="1.693807"/>
	</g>
	<g style="mix-blend-mode:normal">
		<line id="Линия 20" x1="49.847046" y1="17.612671" x2="47.697327" y2="18.854004" stroke="#003075" stroke-opacity="1.000000" stroke-width="1.693807"/>
	</g>
	<g style="mix-blend-mode:normal">
		<line id="Линия 21" x1="41.210205" y1="8.975708" x2="39.968872" y2="11.126221" stroke="#003075" stroke-opacity="1.000000" stroke-width="1.693807"/>
	</g>
	<g style="mix-blend-mode:normal">
		<path id="Контур 32" d="M29.41 10.78L29.41 29.41L43.07 29.41" stroke="#003075" stroke-opacity="1.000000" stroke-width="1.693807"/>
	</g>
	<g style="mix-blend-mode:normal">
		<path id="Контур 33" d="M3.09 40.53C1.64 37.11 0.84 33.35 0.84 29.41C0.84 13.63 13.63 0.84 29.41 0.84C45.18 0.84 57.97 13.63 57.97 29.41C57.97 45.18 45.18 57.97 29.41 57.97" stroke="#003075" stroke-opacity="1.000000" stroke-width="1.693807"/>
	</g>
</svg>
