<svg width="320" height="40" viewBox="0 0 320 40" fill="none" xmlns="http://www.w3.org/2000/svg">
<path d="M48.53 2V19.57H52.56V4.91H64.6V19.57H68.62V2H48.53Z" fill="#003075"/>
<path d="M206.38 4.91V2H192.42H188.81H188.39V19.57H188.81H192.42H206.38V16.66H192.42V12.24H200.48V9.33H192.42V4.91H206.38Z" fill="#DA0010"/>
<path d="M119.13 4.36C119.05 3.04 117.97 2 116.64 2H114.26H102.34H100C98.67 2 97.55 3.04 97.48 4.36L97.46 4.5V17.08C97.49 18.44 98.6 19.58 99.96 19.58H102.34H114.26H116.6C117.97 19.58 119.11 18.48 119.14 17.12V4.5L119.13 4.36ZM115.11 6.46V15.11V16.66H114.26H102.42H101.49V15.11V6.46V4.91H102.34H114.18H115.11V6.46Z" fill="#003075"/>
<path d="M92.73 4.36C92.65 3.04 91.57 2 90.24 2H73.48V19.57H77.51V12.64H90.2C91.57 12.64 92.71 11.54 92.74 10.18V4.5L92.73 4.36ZM88.71 9.27C88.71 9.52 88.51 9.72 88.26 9.73H87.78H77.51V4.91H87.78H88.26C88.51 4.91 88.71 5.11 88.71 5.36V9.27Z" fill="#003075"/>
<path d="M236.17 16.66V2H216.93C215.56 2 214.42 3.09 214.4 4.45L214.39 16.66H210.48V22.39H214.51V19.57H236.13V22.39H240.16V16.66H236.17ZM218.42 16.66V15.11V6.46V4.91H219.35H232.14V16.66H218.42Z" fill="#DA0010"/>
<path d="M179.62 2L171.58 12.51L163.54 2H159.51V19.57H163.54V6.8L169.74 14.9L171.57 17.29L173.41 14.9L179.61 6.8V19.57H183.64V2H179.62Z" fill="#DA0010"/>
<path d="M261.49 2L247.91 15.24V2H243.88V19.57H247.91L261.49 6.36V19.57H265.52V2H261.49Z" fill="#DA0010"/>
<path d="M285.45 19.57H291.37L278.83 10.54L290.69 2H284.77L274.55 9.36V2H270.52V19.57H274.55V11.8H274.66L285.45 19.57Z" fill="#DA0010"/>
<path d="M314.87 19.57H318.9L309.07 2H305.04L295.21 19.57H299.24L301.46 15.59H312.64L314.87 19.57ZM303.09 12.68L307.05 5.6L311.01 12.68H303.09Z" fill="#DA0010"/>
<path d="M155.3 4.36C155.23 3.04 154.15 2 152.81 2H142.08H141.62H138.52H138.06H127.36C126.03 2 124.91 3.04 124.84 4.36L124.83 4.5V13.7C124.85 15.06 125.96 16.2 127.33 16.2H138.06V19.57H142.08V16.2H152.78C154.14 16.2 155.29 15.1 155.31 13.74V4.5L155.3 4.36ZM129.78 13.29H129.3C129.06 13.28 128.86 13.08 128.86 12.83V5.36C128.86 5.11 129.06 4.91 129.31 4.91H129.78H138.06V13.29H129.78ZM151.28 12.83C151.28 13.08 151.08 13.28 150.83 13.29H150.36H142.08V4.91H150.36H150.83C151.08 4.91 151.28 5.11 151.28 5.36V12.83Z" fill="#003075"/>
<path fill-rule="evenodd" clip-rule="evenodd" d="M261.21 25.65C261.397 25.3833 261.51 25.0667 261.55 24.7H260.46C260.42 24.9933 260.317 25.2267 260.15 25.4C260.137 25.42 260.12 25.4367 260.1 25.45C260.04 25.5033 259.98 25.5467 259.92 25.58C259.76 25.6733 259.57 25.72 259.35 25.72C259.017 25.72 258.757 25.6367 258.57 25.47C258.383 25.3033 258.277 25.0467 258.25 24.7H257.17C257.19 25.0733 257.293 25.3933 257.48 25.66C257.567 25.8 257.677 25.9233 257.81 26.03C257.85 26.0633 257.89 26.0933 257.93 26.12C258.303 26.3867 258.773 26.52 259.34 26.52C259.847 26.52 260.287 26.4033 260.66 26.17C260.727 26.13 260.79 26.0833 260.85 26.03C260.99 25.9167 261.11 25.79 261.21 25.65ZM65.12 34.93C65.7 35.2833 66.39 35.46 67.19 35.46C68.0167 35.46 68.7267 35.2767 69.32 34.91C69.58 34.75 69.82 34.5533 70.04 34.32C70.1067 34.24 70.1733 34.16 70.24 34.08C70.8133 33.34 71.1 32.3767 71.1 31.19C71.1 30.21 70.8733 29.38 70.42 28.7C70.3133 28.54 70.1933 28.39 70.06 28.25C69.8267 27.99 69.5667 27.7767 69.28 27.61C68.72 27.2833 68.0667 27.12 67.32 27.12C66.4333 27.12 65.68 27.3233 65.06 27.73C64.8267 27.8833 64.6133 28.0667 64.42 28.28C64.3267 28.38 64.24 28.4867 64.16 28.6C63.62 29.3267 63.35 30.2567 63.35 31.39C63.35 32.3433 63.5667 33.1533 64 33.82C64.12 34 64.2533 34.17 64.4 34.33C64.62 34.57 64.86 34.77 65.12 34.93ZM236.58 35.46C237.487 35.46 238.243 35.3033 238.85 34.99V33.75C238.797 33.7833 238.74 33.8167 238.68 33.85C238.16 34.1433 237.557 34.29 236.87 34.29C236.297 34.29 235.8 34.1633 235.38 33.91C235.193 33.7967 235.023 33.66 234.87 33.5C234.783 33.4133 234.703 33.32 234.63 33.22C234.283 32.7267 234.11 32.1133 234.11 31.38C234.11 30.6267 234.287 29.9933 234.64 29.48C234.72 29.36 234.813 29.2467 234.92 29.14C235.093 28.96 235.28 28.81 235.48 28.69C235.927 28.43 236.45 28.3 237.05 28.3C237.463 28.3 237.857 28.3633 238.23 28.49C238.443 28.5633 238.65 28.66 238.85 28.78V27.45C238.337 27.23 237.69 27.12 236.91 27.12C236.143 27.12 235.463 27.2767 234.87 27.59C234.517 27.7767 234.193 28.0167 233.9 28.31C233.687 28.53 233.5 28.7633 233.34 29.01C232.92 29.69 232.71 30.5 232.71 31.44C232.71 32.38 232.923 33.1767 233.35 33.83C233.47 34.0167 233.607 34.19 233.76 34.35C233.967 34.5633 234.19 34.7467 234.43 34.9C235.03 35.2733 235.747 35.46 236.58 35.46ZM248.34 34.93C248.92 35.2833 249.613 35.46 250.42 35.46C251.24 35.46 251.947 35.2767 252.54 34.91C252.8 34.75 253.04 34.5533 253.26 34.32C253.333 34.24 253.4 34.16 253.46 34.08C254.033 33.34 254.32 32.3767 254.32 31.19C254.32 30.21 254.093 29.38 253.64 28.7C253.533 28.54 253.413 28.39 253.28 28.25C253.047 27.99 252.787 27.7767 252.5 27.61C251.947 27.2833 251.297 27.12 250.55 27.12C249.657 27.12 248.9 27.3233 248.28 27.73C248.047 27.8833 247.833 28.0667 247.64 28.28C247.547 28.38 247.46 28.4867 247.38 28.6C246.84 29.3267 246.57 30.2567 246.57 31.39C246.57 32.3433 246.787 33.1533 247.22 33.82C247.34 34 247.473 34.17 247.62 34.33C247.84 34.57 248.08 34.77 248.34 34.93ZM53.72 35.33H55.06V27.26H48.55V35.33H49.89V28.45H53.72V35.33ZM58.44 35.33V32.4H59.52C60.3133 32.4 60.9633 32.21 61.47 31.83C61.5433 31.7767 61.6133 31.7167 61.68 31.65C61.8867 31.4567 62.0533 31.2433 62.18 31.01C62.38 30.6367 62.48 30.21 62.48 29.73C62.48 29.1633 62.3467 28.69 62.08 28.31C61.98 28.1567 61.8567 28.02 61.71 27.9C61.2033 27.4733 60.4867 27.26 59.56 27.26H57.11V35.33H58.44ZM78.42 37.51H79.62V34.19H78.51V27.26H74.31C74.2633 28.4 74.0633 29.6033 73.71 30.87C73.3633 32.1367 72.9367 33.2433 72.43 34.19H71.74V37.51H72.94V35.33H78.42V37.51ZM86.25 35.33H87.72L84.72 27.26H83.21L80.19 35.33H81.65L82.35 33.27H85.52L86.25 35.33ZM97.23 35.33H98.95L95.53 31.13L98.7 27.26H97.09L94.42 30.7C94.3267 30.82 94.2567 30.9267 94.21 31.02H94.18V27.26H92.89V31.02H92.87C92.81 30.9133 92.7367 30.8067 92.65 30.7L89.98 27.26H88.36L91.54 31.13L88.12 35.33H89.84L92.68 31.67C92.7533 31.5767 92.8167 31.4833 92.87 31.39H92.89V35.33H94.18V31.39H94.21C94.25 31.4767 94.31 31.57 94.39 31.67L97.23 35.33ZM105.41 35.33H106.87L103.87 27.26H102.37L99.34 35.33H100.81L101.5 33.27H104.68L105.41 35.33ZM116.85 35.33H118.14V27.26H116.6L112.86 33.05C112.74 33.23 112.64 33.3933 112.56 33.54H112.54C112.573 33.36 112.59 32.9767 112.59 32.39V27.26H111.29V35.33H112.76L116.63 29.39C116.73 29.25 116.81 29.0967 116.87 28.93H116.91C116.87 29.13 116.85 29.47 116.85 29.95V35.33ZM128.61 35.33H130.08L127.08 27.26H125.57L122.55 35.33H124.01L124.71 33.27H127.89L128.61 35.33ZM132.6 35.33V32.4H133.67C134.463 32.4 135.113 32.21 135.62 31.83C135.693 31.7767 135.763 31.7167 135.83 31.65C136.037 31.4567 136.203 31.2433 136.33 31.01C136.53 30.6367 136.63 30.21 136.63 29.73C136.63 29.1633 136.5 28.69 136.24 28.31C136.133 28.1567 136.01 28.02 135.87 27.9C135.357 27.4733 134.637 27.26 133.71 27.26H131.26V35.33H132.6ZM138.07 35.33H142.6V34.2H139.41V31.81H142.18V30.68H139.41V28.39H142.42V27.26H138.07V35.33ZM149.25 35.33H150.59V27.26H149.25V30.65H145.45V27.26H144.11V35.33H145.45V31.83H149.25V35.33ZM158.48 37.51H159.67V34.19H158.56V27.26H154.37C154.323 28.4 154.123 29.6033 153.77 30.87C153.417 32.1367 152.987 33.2433 152.48 34.19H151.8V37.51H152.99V35.33H158.48V37.51ZM166.3 35.33H167.77L164.77 27.26H163.26L160.24 35.33H161.7L162.4 33.27H165.58L166.3 35.33ZM179.53 35.33H180.86V27.26H179.04L176.88 32.61C176.793 32.8167 176.68 33.1333 176.54 33.56H176.51C176.463 33.3533 176.36 33.0433 176.2 32.63L174.08 27.26H172.19V35.33H173.43V30.12C173.43 29.3867 173.413 28.8567 173.38 28.53H173.41C173.483 28.89 173.553 29.16 173.62 29.34L176.03 35.33H176.96L179.37 29.29C179.43 29.1367 179.503 28.8833 179.59 28.53H179.61C179.557 29.15 179.53 29.6733 179.53 30.1V35.33ZM182.92 35.33H187.45V34.2H184.26V31.81H187.03V30.68H184.26V28.39H187.27V27.26H182.92V35.33ZM195.13 37.51H196.33V34.19H195.21V27.26H191.02C190.973 28.4 190.773 29.6033 190.42 30.87C190.067 32.1367 189.637 33.2433 189.13 34.19H188.45V37.51H189.65V35.33H195.13V37.51ZM203.35 35.33H204.64V27.26H203.1L199.36 33.05C199.24 33.23 199.143 33.3933 199.07 33.54H199.04C199.073 33.36 199.09 32.9767 199.09 32.39V27.26H197.79V35.33H199.26L203.14 29.39C203.233 29.25 203.31 29.0967 203.37 28.93H203.41C203.37 29.13 203.35 29.47 203.35 29.95V35.33ZM213.11 37.51H214.31V34.16H213.2V27.26H211.85V34.16H208.05V27.26H206.71V35.33H213.11V37.51ZM221.31 35.33H222.6V27.26H221.05L217.32 33.05C217.2 33.23 217.1 33.3933 217.02 33.54H217C217.033 33.36 217.05 32.9767 217.05 32.39V27.26H215.75V35.33H217.22L221.09 29.39C221.183 29.25 221.263 29.0967 221.33 28.93H221.36C221.327 29.13 221.31 29.47 221.31 29.95V35.33ZM229.81 35.33H231.16V27.26H229.81V30.65H226.01V27.26H224.67V35.33H226.01V31.83H229.81V35.33ZM244.81 35.33H246.56L243.15 31.13L246.32 27.26H244.71L242 30.77C241.92 30.8767 241.857 30.97 241.81 31.05H241.79V27.26H240.45V35.33H241.79V31.35H241.81C241.837 31.4033 241.9 31.5 242 31.64L244.81 35.33ZM261.43 35.33H262.72V27.26H261.18L257.44 33.05C257.32 33.23 257.22 33.3933 257.14 33.54H257.12C257.153 33.36 257.17 32.9767 257.17 32.39V27.26H255.87V35.33H257.34L261.22 29.39C261.313 29.25 261.39 29.0967 261.45 28.93H261.49C261.45 29.13 261.43 29.47 261.43 29.95V35.33ZM270.89 28.39H273.21V27.26H267.24V28.39H269.55V35.33H270.89V28.39ZM274.46 35.33H278.99V34.2H275.8V31.81H278.58V30.68H275.8V28.39H278.81V27.26H274.46V35.33ZM284.98 35.33H286.59L284.04 31.26L286.53 27.26H285.03L283.51 29.96C283.43 30.1 283.337 30.2867 283.23 30.52H283.21C283.137 30.34 283.053 30.16 282.96 29.98L281.5 27.26H279.86L282.29 31.27L279.65 35.33H281.26L282.97 32.37C283.05 32.1967 283.107 32.0667 283.14 31.98H283.16C283.22 32.1467 283.273 32.2767 283.32 32.37L284.98 35.33ZM292.9 35.33H294.24V27.26H292.9V30.65H289.1V27.26H287.76V35.33H289.1V31.83H292.9V35.33ZM301.86 35.33H303.15V27.26H301.61L297.87 33.05C297.75 33.23 297.653 33.3933 297.58 33.54H297.56C297.587 33.36 297.6 32.9767 297.6 32.39V27.26H296.31V35.33H297.78L301.65 29.39C301.743 29.25 301.82 29.0967 301.88 28.93H301.92C301.88 29.13 301.86 29.47 301.86 29.95V35.33ZM309.59 35.33H311.33L307.92 31.13L311.09 27.26H309.49L306.78 30.77C306.7 30.8767 306.637 30.97 306.59 31.05H306.57V27.26H305.23V35.33H306.57V31.35H306.59C306.61 31.4033 306.673 31.5 306.78 31.64L309.59 35.33ZM317.89 35.33H319.18V27.26H317.64L313.9 33.05C313.78 33.23 313.683 33.3933 313.61 33.54H313.59C313.617 33.36 313.63 32.9767 313.63 32.39V27.26H312.34V35.33H313.81L317.68 29.39C317.773 29.25 317.853 29.0967 317.92 28.93H317.95C317.91 29.13 317.89 29.47 317.89 29.95V35.33ZM66.19 28.53C66.5033 28.3767 66.86 28.3 67.26 28.3C67.7533 28.3 68.18 28.41 68.54 28.63C68.7267 28.75 68.8967 28.9033 69.05 29.09C69.4833 29.61 69.7 30.3533 69.7 31.32C69.7 32.26 69.4767 32.99 69.03 33.51C68.8833 33.6833 68.7167 33.83 68.53 33.95C68.1567 34.1767 67.7133 34.29 67.2 34.29C66.8067 34.29 66.4567 34.2133 66.15 34.06C65.8833 33.92 65.6433 33.7233 65.43 33.47C65.4167 33.45 65.4 33.43 65.38 33.41C64.9667 32.87 64.76 32.1667 64.76 31.3C64.76 30.46 64.96 29.7733 65.36 29.24C65.3933 29.2 65.4233 29.16 65.45 29.12C65.6633 28.8667 65.91 28.67 66.19 28.53ZM249.41 28.53C249.723 28.3767 250.08 28.3 250.48 28.3C250.973 28.3 251.4 28.41 251.76 28.63C251.947 28.75 252.117 28.9033 252.27 29.09C252.703 29.61 252.92 30.3533 252.92 31.32C252.92 32.26 252.697 32.99 252.25 33.51C252.103 33.6833 251.937 33.83 251.75 33.95C251.377 34.1767 250.933 34.29 250.42 34.29C250.033 34.29 249.683 34.2133 249.37 34.06C249.103 33.92 248.863 33.7233 248.65 33.47C248.637 33.45 248.623 33.43 248.61 33.41C248.19 32.87 247.98 32.1667 247.98 31.3C247.98 30.46 248.18 29.7733 248.58 29.24C248.613 29.2 248.643 29.16 248.67 29.12C248.89 28.8667 249.137 28.67 249.41 28.53ZM58.44 31.31V28.36H59.42C60.0533 28.36 60.5033 28.5167 60.77 28.83C60.97 29.0633 61.07 29.38 61.07 29.78C61.07 30.1533 60.9833 30.46 60.81 30.7C60.7567 30.78 60.6933 30.85 60.62 30.91C60.32 31.1767 59.8833 31.31 59.31 31.31H58.44ZM132.6 31.31V28.36H133.57C134.203 28.36 134.653 28.5167 134.92 28.83C135.12 29.0633 135.22 29.38 135.22 29.78C135.22 30.1533 135.133 30.46 134.96 30.7C134.907 30.78 134.843 30.85 134.77 30.91C134.47 31.1767 134.033 31.31 133.46 31.31H132.6ZM77.17 28.41V34.19H73.83C74.2167 33.4367 74.5633 32.4967 74.87 31.37C75.1833 30.2367 75.3667 29.25 75.42 28.41H77.17ZM157.22 28.41V34.19H153.89C154.27 33.4367 154.617 32.4967 154.93 31.37C155.237 30.2367 155.417 29.25 155.47 28.41H157.22ZM193.87 28.41V34.19H190.54C190.92 33.4367 191.267 32.4967 191.58 31.37C191.893 30.2367 192.077 29.25 192.13 28.41H193.87ZM84.05 28.96L85.17 32.18H82.7L83.81 28.96C83.85 28.84 83.8867 28.67 83.92 28.45H83.94C83.98 28.6833 84.0167 28.8533 84.05 28.96ZM103.2 28.96L104.32 32.18H101.85L102.96 28.96C103 28.84 103.037 28.67 103.07 28.45H103.1C103.133 28.6833 103.167 28.8533 103.2 28.96ZM126.41 28.96L127.53 32.18H125.06L126.17 28.96C126.21 28.84 126.247 28.67 126.28 28.45H126.3C126.34 28.6833 126.377 28.8533 126.41 28.96ZM164.1 28.96L165.22 32.18H162.75L163.86 28.96C163.9 28.84 163.937 28.67 163.97 28.45H163.99C164.03 28.6833 164.067 28.8533 164.1 28.96Z" fill="#003075"/>
<path d="M38.11 11.99H27.81V1.69C27.81 0.759996 27.05 0 26.11 0H13.69C12.75 0 11.99 0.759996 11.99 1.69V6.59L15.51 10.01L17.55 11.99L18.49 12.9L25.71 19.9L18.49 26.9L17.55 27.81L15.51 29.79L11.99 33.21V38.11C11.99 39.04 12.75 39.8 13.69 39.8H26.11C27.05 39.8 27.81 39.04 27.81 38.11V27.81H38.11C39.04 27.81 39.8 27.05 39.8 26.11V13.69C39.8 12.75 39.04 11.99 38.11 11.99Z" fill="#003075"/>
<path d="M17.76 14.3L15.38 11.99L11.99 8.70001V11.99H1.68998C0.759985 11.99 0 12.75 0 13.69V26.11C0 27.05 0.759985 27.81 1.68998 27.81H11.99V31.1L15.38 27.81L17.76 25.5L23.53 19.9L17.76 14.3Z" fill="#DA0010"/>
</svg>
