<svg width="342" height="77" viewBox="0 0 342 77" fill="none" xmlns="http://www.w3.org/2000/svg">
<rect width="342" height="77" rx="10" fill="white"/>
<path d="M59.53 21V38.57H63.56V23.91H75.6V38.57H79.62V21H59.53Z" fill="#003075"/>
<path d="M217.38 23.91V21H203.42H199.81H199.39V38.57H199.81H203.42H217.38V35.66H203.42V31.24H211.48V28.33H203.42V23.91H217.38Z" fill="#DA0010"/>
<path d="M130.13 23.36C130.05 22.04 128.97 21 127.64 21H125.26H113.34H111C109.67 21 108.55 22.04 108.48 23.36L108.46 23.5V36.08C108.49 37.44 109.6 38.58 110.96 38.58H113.34H125.26H127.6C128.97 38.58 130.11 37.48 130.14 36.12V23.5L130.13 23.36ZM126.11 25.46V34.11V35.66H125.26H113.42H112.49V34.11V25.46V23.91H113.34H125.18H126.11V25.46Z" fill="#003075"/>
<path d="M103.73 23.36C103.65 22.04 102.57 21 101.24 21H84.48V38.57H88.51V31.64H101.2C102.57 31.64 103.71 30.54 103.74 29.18V23.5L103.73 23.36ZM99.71 28.27C99.71 28.52 99.51 28.72 99.26 28.73H98.78H88.51V23.91H98.78H99.26C99.51 23.91 99.71 24.11 99.71 24.36V28.27Z" fill="#003075"/>
<path d="M247.17 35.66V21H227.93C226.56 21 225.42 22.09 225.4 23.45L225.39 35.66H221.48V41.39H225.51V38.57H247.13V41.39H251.16V35.66H247.17ZM229.42 35.66V34.11V25.46V23.91H230.35H243.14V35.66H229.42Z" fill="#DA0010"/>
<path d="M190.62 21L182.58 31.51L174.54 21H170.51V38.57H174.54V25.8L180.74 33.9L182.57 36.29L184.41 33.9L190.61 25.8V38.57H194.64V21H190.62Z" fill="#DA0010"/>
<path d="M272.49 21L258.91 34.24V21H254.88V38.57H258.91L272.49 25.36V38.57H276.52V21H272.49Z" fill="#DA0010"/>
<path d="M296.45 38.57H302.37L289.83 29.54L301.69 21H295.77L285.55 28.36V21H281.52V38.57H285.55V30.8H285.66L296.45 38.57Z" fill="#DA0010"/>
<path d="M325.87 38.57H329.9L320.07 21H316.04L306.21 38.57H310.24L312.46 34.59H323.64L325.87 38.57ZM314.09 31.68L318.05 24.6L322.01 31.68H314.09Z" fill="#DA0010"/>
<path d="M166.3 23.36C166.23 22.04 165.15 21 163.81 21H153.08H152.62H149.52H149.06H138.36C137.03 21 135.91 22.04 135.84 23.36L135.83 23.5V32.7C135.85 34.06 136.96 35.2 138.33 35.2H149.06V38.57H153.08V35.2H163.78C165.14 35.2 166.29 34.1 166.31 32.74V23.5L166.3 23.36ZM140.78 32.29H140.3C140.06 32.28 139.86 32.08 139.86 31.83V24.36C139.86 24.11 140.06 23.91 140.31 23.91H140.78H149.06V32.29H140.78ZM162.28 31.83C162.28 32.08 162.08 32.28 161.83 32.29H161.36H153.08V23.91H161.36H161.83C162.08 23.91 162.28 24.11 162.28 24.36V31.83Z" fill="#003075"/>
<path fill-rule="evenodd" clip-rule="evenodd" d="M272.21 44.65C272.397 44.3833 272.51 44.0667 272.55 43.7H271.46C271.42 43.9933 271.317 44.2267 271.15 44.4C271.137 44.42 271.12 44.4367 271.1 44.45C271.04 44.5033 270.98 44.5467 270.92 44.58C270.76 44.6733 270.57 44.72 270.35 44.72C270.017 44.72 269.757 44.6367 269.57 44.47C269.383 44.3033 269.277 44.0467 269.25 43.7H268.17C268.19 44.0733 268.293 44.3933 268.48 44.66C268.567 44.8 268.677 44.9233 268.81 45.03C268.85 45.0633 268.89 45.0933 268.93 45.12C269.303 45.3867 269.773 45.52 270.34 45.52C270.847 45.52 271.287 45.4033 271.66 45.17C271.727 45.13 271.79 45.0833 271.85 45.03C271.99 44.9167 272.11 44.79 272.21 44.65ZM76.12 53.93C76.7 54.2833 77.39 54.46 78.19 54.46C79.0167 54.46 79.7267 54.2767 80.32 53.91C80.58 53.75 80.82 53.5533 81.04 53.32C81.1067 53.24 81.1733 53.16 81.24 53.08C81.8133 52.34 82.1 51.3767 82.1 50.19C82.1 49.21 81.8733 48.38 81.42 47.7C81.3133 47.54 81.1933 47.39 81.06 47.25C80.8267 46.99 80.5667 46.7767 80.28 46.61C79.72 46.2833 79.0667 46.12 78.32 46.12C77.4333 46.12 76.68 46.3233 76.06 46.73C75.8267 46.8833 75.6133 47.0667 75.42 47.28C75.3267 47.38 75.24 47.4867 75.16 47.6C74.62 48.3267 74.35 49.2567 74.35 50.39C74.35 51.3433 74.5667 52.1533 75 52.82C75.12 53 75.2533 53.17 75.4 53.33C75.62 53.57 75.86 53.77 76.12 53.93ZM247.58 54.46C248.487 54.46 249.243 54.3033 249.85 53.99V52.75C249.797 52.7833 249.74 52.8167 249.68 52.85C249.16 53.1433 248.557 53.29 247.87 53.29C247.297 53.29 246.8 53.1633 246.38 52.91C246.193 52.7967 246.023 52.66 245.87 52.5C245.783 52.4133 245.703 52.32 245.63 52.22C245.283 51.7267 245.11 51.1133 245.11 50.38C245.11 49.6267 245.287 48.9933 245.64 48.48C245.72 48.36 245.813 48.2467 245.92 48.14C246.093 47.96 246.28 47.81 246.48 47.69C246.927 47.43 247.45 47.3 248.05 47.3C248.463 47.3 248.857 47.3633 249.23 47.49C249.443 47.5633 249.65 47.66 249.85 47.78V46.45C249.337 46.23 248.69 46.12 247.91 46.12C247.143 46.12 246.463 46.2767 245.87 46.59C245.517 46.7767 245.193 47.0167 244.9 47.31C244.687 47.53 244.5 47.7633 244.34 48.01C243.92 48.69 243.71 49.5 243.71 50.44C243.71 51.38 243.923 52.1767 244.35 52.83C244.47 53.0167 244.607 53.19 244.76 53.35C244.967 53.5633 245.19 53.7467 245.43 53.9C246.03 54.2733 246.747 54.46 247.58 54.46ZM259.34 53.93C259.92 54.2833 260.613 54.46 261.42 54.46C262.24 54.46 262.947 54.2767 263.54 53.91C263.8 53.75 264.04 53.5533 264.26 53.32C264.333 53.24 264.4 53.16 264.46 53.08C265.033 52.34 265.32 51.3767 265.32 50.19C265.32 49.21 265.093 48.38 264.64 47.7C264.533 47.54 264.413 47.39 264.28 47.25C264.047 46.99 263.787 46.7767 263.5 46.61C262.947 46.2833 262.297 46.12 261.55 46.12C260.657 46.12 259.9 46.3233 259.28 46.73C259.047 46.8833 258.833 47.0667 258.64 47.28C258.547 47.38 258.46 47.4867 258.38 47.6C257.84 48.3267 257.57 49.2567 257.57 50.39C257.57 51.3433 257.787 52.1533 258.22 52.82C258.34 53 258.473 53.17 258.62 53.33C258.84 53.57 259.08 53.77 259.34 53.93ZM64.72 54.33H66.06V46.26H59.55V54.33H60.89V47.45H64.72V54.33ZM69.44 54.33V51.4H70.52C71.3133 51.4 71.9633 51.21 72.47 50.83C72.5433 50.7767 72.6133 50.7167 72.68 50.65C72.8867 50.4567 73.0533 50.2433 73.18 50.01C73.38 49.6367 73.48 49.21 73.48 48.73C73.48 48.1633 73.3467 47.69 73.08 47.31C72.98 47.1567 72.8567 47.02 72.71 46.9C72.2033 46.4733 71.4867 46.26 70.56 46.26H68.11V54.33H69.44ZM89.42 56.51H90.62V53.19H89.51V46.26H85.31C85.2633 47.4 85.0633 48.6033 84.71 49.87C84.3633 51.1367 83.9367 52.2433 83.43 53.19H82.74V56.51H83.94V54.33H89.42V56.51ZM97.25 54.33H98.72L95.72 46.26H94.21L91.19 54.33H92.65L93.35 52.27H96.52L97.25 54.33ZM108.23 54.33H109.95L106.53 50.13L109.7 46.26H108.09L105.42 49.7C105.327 49.82 105.257 49.9267 105.21 50.02H105.18V46.26H103.89V50.02H103.87C103.81 49.9133 103.737 49.8067 103.65 49.7L100.98 46.26H99.36L102.54 50.13L99.12 54.33H100.84L103.68 50.67C103.753 50.5767 103.817 50.4833 103.87 50.39H103.89V54.33H105.18V50.39H105.21C105.25 50.4767 105.31 50.57 105.39 50.67L108.23 54.33ZM116.41 54.33H117.87L114.87 46.26H113.37L110.34 54.33H111.81L112.5 52.27H115.68L116.41 54.33ZM127.85 54.33H129.14V46.26H127.6L123.86 52.05C123.74 52.23 123.64 52.3933 123.56 52.54H123.54C123.573 52.36 123.59 51.9767 123.59 51.39V46.26H122.29V54.33H123.76L127.63 48.39C127.73 48.25 127.81 48.0967 127.87 47.93H127.91C127.87 48.13 127.85 48.47 127.85 48.95V54.33ZM139.61 54.33H141.08L138.08 46.26H136.57L133.55 54.33H135.01L135.71 52.27H138.89L139.61 54.33ZM143.6 54.33V51.4H144.67C145.463 51.4 146.113 51.21 146.62 50.83C146.693 50.7767 146.763 50.7167 146.83 50.65C147.037 50.4567 147.203 50.2433 147.33 50.01C147.53 49.6367 147.63 49.21 147.63 48.73C147.63 48.1633 147.5 47.69 147.24 47.31C147.133 47.1567 147.01 47.02 146.87 46.9C146.357 46.4733 145.637 46.26 144.71 46.26H142.26V54.33H143.6ZM149.07 54.33H153.6V53.2H150.41V50.81H153.18V49.68H150.41V47.39H153.42V46.26H149.07V54.33ZM160.25 54.33H161.59V46.26H160.25V49.65H156.45V46.26H155.11V54.33H156.45V50.83H160.25V54.33ZM169.48 56.51H170.67V53.19H169.56V46.26H165.37C165.323 47.4 165.123 48.6033 164.77 49.87C164.417 51.1367 163.987 52.2433 163.48 53.19H162.8V56.51H163.99V54.33H169.48V56.51ZM177.3 54.33H178.77L175.77 46.26H174.26L171.24 54.33H172.7L173.4 52.27H176.58L177.3 54.33ZM190.53 54.33H191.86V46.26H190.04L187.88 51.61C187.793 51.8167 187.68 52.1333 187.54 52.56H187.51C187.463 52.3533 187.36 52.0433 187.2 51.63L185.08 46.26H183.19V54.33H184.43V49.12C184.43 48.3867 184.413 47.8567 184.38 47.53H184.41C184.483 47.89 184.553 48.16 184.62 48.34L187.03 54.33H187.96L190.37 48.29C190.43 48.1367 190.503 47.8833 190.59 47.53H190.61C190.557 48.15 190.53 48.6733 190.53 49.1V54.33ZM193.92 54.33H198.45V53.2H195.26V50.81H198.03V49.68H195.26V47.39H198.27V46.26H193.92V54.33ZM206.13 56.51H207.33V53.19H206.21V46.26H202.02C201.973 47.4 201.773 48.6033 201.42 49.87C201.067 51.1367 200.637 52.2433 200.13 53.19H199.45V56.51H200.65V54.33H206.13V56.51ZM214.35 54.33H215.64V46.26H214.1L210.36 52.05C210.24 52.23 210.143 52.3933 210.07 52.54H210.04C210.073 52.36 210.09 51.9767 210.09 51.39V46.26H208.79V54.33H210.26L214.14 48.39C214.233 48.25 214.31 48.0967 214.37 47.93H214.41C214.37 48.13 214.35 48.47 214.35 48.95V54.33ZM224.11 56.51H225.31V53.16H224.2V46.26H222.85V53.16H219.05V46.26H217.71V54.33H224.11V56.51ZM232.31 54.33H233.6V46.26H232.05L228.32 52.05C228.2 52.23 228.1 52.3933 228.02 52.54H228C228.033 52.36 228.05 51.9767 228.05 51.39V46.26H226.75V54.33H228.22L232.09 48.39C232.183 48.25 232.263 48.0967 232.33 47.93H232.36C232.327 48.13 232.31 48.47 232.31 48.95V54.33ZM240.81 54.33H242.16V46.26H240.81V49.65H237.01V46.26H235.67V54.33H237.01V50.83H240.81V54.33ZM255.81 54.33H257.56L254.15 50.13L257.32 46.26H255.71L253 49.77C252.92 49.8767 252.857 49.97 252.81 50.05H252.79V46.26H251.45V54.33H252.79V50.35H252.81C252.837 50.4033 252.9 50.5 253 50.64L255.81 54.33ZM272.43 54.33H273.72V46.26H272.18L268.44 52.05C268.32 52.23 268.22 52.3933 268.14 52.54H268.12C268.153 52.36 268.17 51.9767 268.17 51.39V46.26H266.87V54.33H268.34L272.22 48.39C272.313 48.25 272.39 48.0967 272.45 47.93H272.49C272.45 48.13 272.43 48.47 272.43 48.95V54.33ZM281.89 47.39H284.21V46.26H278.24V47.39H280.55V54.33H281.89V47.39ZM285.46 54.33H289.99V53.2H286.8V50.81H289.58V49.68H286.8V47.39H289.81V46.26H285.46V54.33ZM295.98 54.33H297.59L295.04 50.26L297.53 46.26H296.03L294.51 48.96C294.43 49.1 294.337 49.2867 294.23 49.52H294.21C294.137 49.34 294.053 49.16 293.96 48.98L292.5 46.26H290.86L293.29 50.27L290.65 54.33H292.26L293.97 51.37C294.05 51.1967 294.107 51.0667 294.14 50.98H294.16C294.22 51.1467 294.273 51.2767 294.32 51.37L295.98 54.33ZM303.9 54.33H305.24V46.26H303.9V49.65H300.1V46.26H298.76V54.33H300.1V50.83H303.9V54.33ZM312.86 54.33H314.15V46.26H312.61L308.87 52.05C308.75 52.23 308.653 52.3933 308.58 52.54H308.56C308.587 52.36 308.6 51.9767 308.6 51.39V46.26H307.31V54.33H308.78L312.65 48.39C312.743 48.25 312.82 48.0967 312.88 47.93H312.92C312.88 48.13 312.86 48.47 312.86 48.95V54.33ZM320.59 54.33H322.33L318.92 50.13L322.09 46.26H320.49L317.78 49.77C317.7 49.8767 317.637 49.97 317.59 50.05H317.57V46.26H316.23V54.33H317.57V50.35H317.59C317.61 50.4033 317.673 50.5 317.78 50.64L320.59 54.33ZM328.89 54.33H330.18V46.26H328.64L324.9 52.05C324.78 52.23 324.683 52.3933 324.61 52.54H324.59C324.617 52.36 324.63 51.9767 324.63 51.39V46.26H323.34V54.33H324.81L328.68 48.39C328.773 48.25 328.853 48.0967 328.92 47.93H328.95C328.91 48.13 328.89 48.47 328.89 48.95V54.33ZM77.19 47.53C77.5033 47.3767 77.86 47.3 78.26 47.3C78.7533 47.3 79.18 47.41 79.54 47.63C79.7267 47.75 79.8967 47.9033 80.05 48.09C80.4833 48.61 80.7 49.3533 80.7 50.32C80.7 51.26 80.4767 51.99 80.03 52.51C79.8833 52.6833 79.7167 52.83 79.53 52.95C79.1567 53.1767 78.7133 53.29 78.2 53.29C77.8067 53.29 77.4567 53.2133 77.15 53.06C76.8833 52.92 76.6433 52.7233 76.43 52.47C76.4167 52.45 76.4 52.43 76.38 52.41C75.9667 51.87 75.76 51.1667 75.76 50.3C75.76 49.46 75.96 48.7733 76.36 48.24C76.3933 48.2 76.4233 48.16 76.45 48.12C76.6633 47.8667 76.91 47.67 77.19 47.53ZM260.41 47.53C260.723 47.3767 261.08 47.3 261.48 47.3C261.973 47.3 262.4 47.41 262.76 47.63C262.947 47.75 263.117 47.9033 263.27 48.09C263.703 48.61 263.92 49.3533 263.92 50.32C263.92 51.26 263.697 51.99 263.25 52.51C263.103 52.6833 262.937 52.83 262.75 52.95C262.377 53.1767 261.933 53.29 261.42 53.29C261.033 53.29 260.683 53.2133 260.37 53.06C260.103 52.92 259.863 52.7233 259.65 52.47C259.637 52.45 259.623 52.43 259.61 52.41C259.19 51.87 258.98 51.1667 258.98 50.3C258.98 49.46 259.18 48.7733 259.58 48.24C259.613 48.2 259.643 48.16 259.67 48.12C259.89 47.8667 260.137 47.67 260.41 47.53ZM69.44 50.31V47.36H70.42C71.0533 47.36 71.5033 47.5167 71.77 47.83C71.97 48.0633 72.07 48.38 72.07 48.78C72.07 49.1533 71.9833 49.46 71.81 49.7C71.7567 49.78 71.6933 49.85 71.62 49.91C71.32 50.1767 70.8833 50.31 70.31 50.31H69.44ZM143.6 50.31V47.36H144.57C145.203 47.36 145.653 47.5167 145.92 47.83C146.12 48.0633 146.22 48.38 146.22 48.78C146.22 49.1533 146.133 49.46 145.96 49.7C145.907 49.78 145.843 49.85 145.77 49.91C145.47 50.1767 145.033 50.31 144.46 50.31H143.6ZM88.17 47.41V53.19H84.83C85.2167 52.4367 85.5633 51.4967 85.87 50.37C86.1833 49.2367 86.3667 48.25 86.42 47.41H88.17ZM168.22 47.41V53.19H164.89C165.27 52.4367 165.617 51.4967 165.93 50.37C166.237 49.2367 166.417 48.25 166.47 47.41H168.22ZM204.87 47.41V53.19H201.54C201.92 52.4367 202.267 51.4967 202.58 50.37C202.893 49.2367 203.077 48.25 203.13 47.41H204.87ZM95.05 47.96L96.17 51.18H93.7L94.81 47.96C94.85 47.84 94.8867 47.67 94.92 47.45H94.94C94.98 47.6833 95.0167 47.8533 95.05 47.96ZM114.2 47.96L115.32 51.18H112.85L113.96 47.96C114 47.84 114.037 47.67 114.07 47.45H114.1C114.133 47.6833 114.167 47.8533 114.2 47.96ZM137.41 47.96L138.53 51.18H136.06L137.17 47.96C137.21 47.84 137.247 47.67 137.28 47.45H137.3C137.34 47.6833 137.377 47.8533 137.41 47.96ZM175.1 47.96L176.22 51.18H173.75L174.86 47.96C174.9 47.84 174.937 47.67 174.97 47.45H174.99C175.03 47.6833 175.067 47.8533 175.1 47.96Z" fill="#003075"/>
<path d="M49.11 30.99H38.81V20.69C38.81 19.76 38.05 19 37.11 19H24.69C23.75 19 22.99 19.76 22.99 20.69V25.59L26.51 29.01L28.55 30.99L29.49 31.9L36.71 38.9L29.49 45.9L28.55 46.81L26.51 48.79L22.99 52.21V57.11C22.99 58.04 23.75 58.8 24.69 58.8H37.11C38.05 58.8 38.81 58.04 38.81 57.11V46.81H49.11C50.04 46.81 50.8 46.05 50.8 45.11V32.69C50.8 31.75 50.04 30.99 49.11 30.99Z" fill="#003075"/>
<path d="M28.76 33.3L26.38 30.99L22.99 27.7V30.99H12.69C11.76 30.99 11 31.75 11 32.69V45.11C11 46.05 11.76 46.81 12.69 46.81H22.99V50.1L26.38 46.81L28.76 44.5L34.53 38.9L28.76 33.3Z" fill="#DA0010"/>
</svg>
